<?xml version="1.0" encoding="UTF-8"?>
<svg xmlns="http://www.w3.org/2000/svg" style="position:absolute;width:0;height:0;overflow:hidden" aria-hidden="true" focusable="false">
    <symbol id="icon-activity" viewBox="0 0 24 24" fill="none" stroke="currentColor" stroke-width="2" stroke-linecap="round" stroke-linejoin="round"><path d="M22 12h-2.48a2 2 0 0 0-1.93 1.46l-2.35 8.36a.25.25 0 0 1-.48 0L9.24 2.18a.25.25 0 0 0-.48 0l-2.35 8.36A2 2 0 0 1 4.49 12H2" /></symbol>
    <symbol id="icon-arrow-left" viewBox="0 0 24 24" fill="none" stroke="currentColor" stroke-width="2" stroke-linecap="round" stroke-linejoin="round"><path d="m12 19-7-7 7-7" /><path d="M19 12H5" /></symbol>
    <symbol id="icon-arrow-up" viewBox="0 0 24 24" fill="none" stroke="currentColor" stroke-width="2" stroke-linecap="round" stroke-linejoin="round"><path d="m5 12 7-7 7 7" /><path d="M12 19V5" /></symbol>
    <symbol id="icon-calendar-check" viewBox="0 0 24 24" fill="none" stroke="currentColor" stroke-width="2" stroke-linecap="round" stroke-linejoin="round"><path d="M8 2v3" /><path d="M16 2v3" /><rect x="3" y="3" width="18" height="18" rx="2" /><path d="M3 9h18" /><path d="m9 15 2 2 4-4" /></symbol>
    <symbol id="icon-check-circle-2" viewBox="0 0 24 24" fill="none" stroke="currentColor" stroke-width="2" stroke-linecap="round" stroke-linejoin="round"><circle cx="12" cy="12" r="10" /><path d="m9 12 2 2 4-4" /></symbol>
    <symbol id="icon-chevron-down" viewBox="0 0 24 24" fill="none" stroke="currentColor" stroke-width="2" stroke-linecap="round" stroke-linejoin="round"><path d="m6 9 6 6 6-6" /></symbol>
    <symbol id="icon-clock" viewBox="0 0 24 24" fill="none" stroke="currentColor" stroke-width="2" stroke-linecap="round" stroke-linejoin="round"><circle cx="12" cy="12" r="10" /><path d="M12 6v6l4 2" /></symbol>
    <symbol id="icon-loader-2" viewBox="0 0 24 24" fill="none" stroke="currentColor" stroke-width="2" stroke-linecap="round" stroke-linejoin="round"><path d="M21 12a9 9 0 1 1-6.219-8.56" /></symbol>
    <symbol id="icon-mail" viewBox="0 0 24 24" fill="none" stroke="currentColor" stroke-width="2" stroke-linecap="round" stroke-linejoin="round"><path d="m22 7-8.991 5.727a2 2 0 0 1-2.009 0L2 7" /><rect x="2" y="4" width="20" height="16" rx="2" /></symbol>
    <symbol id="icon-map-pin" viewBox="0 0 24 24" fill="none" stroke="currentColor" stroke-width="2" stroke-linecap="round" stroke-linejoin="round"><path d="M20 10c0 4.993-5.539 10.193-7.399 11.799a1 1 0 0 1-1.202 0C9.539 20.193 4 14.993 4 10a8 8 0 0 1 16 0" /><circle cx="12" cy="10" r="3" /></symbol>
    <symbol id="icon-menu" viewBox="0 0 24 24" fill="none" stroke="currentColor" stroke-width="2" stroke-linecap="round" stroke-linejoin="round"><path d="M4 5h16" /><path d="M4 12h16" /><path d="M4 19h16" /></symbol>
    <symbol id="icon-message-circle" viewBox="0 0 24 24" fill="none" stroke="currentColor" stroke-width="2" stroke-linecap="round" stroke-linejoin="round"><path d="M2.992 16.342a2 2 0 0 1 .094 1.167l-1.065 3.29a1 1 0 0 0 1.236 1.168l3.413-.998a2 2 0 0 1 1.099.092 10 10 0 1 0-4.777-4.719" /></symbol>
    <symbol id="icon-microscope" viewBox="0 0 24 24" fill="none" stroke="currentColor" stroke-width="2" stroke-linecap="round" stroke-linejoin="round"><path d="M6 18h8" /><path d="M3 22h18" /><path d="M14 22a7 7 0 1 0 0-14h-1" /><path d="M9 14h2" /><path d="M9 12a2 2 0 0 1-2-2V6h6v4a2 2 0 0 1-2 2Z" /><path d="M12 6V3a1 1 0 0 0-1-1H9a1 1 0 0 0-1 1v3" /></symbol>
    <symbol id="icon-move-horizontal" viewBox="0 0 24 24" fill="none" stroke="currentColor" stroke-width="2" stroke-linecap="round" stroke-linejoin="round"><path d="m18 8 4 4-4 4" /><path d="M2 12h20" /><path d="m6 8-4 4 4 4" /></symbol>
    <symbol id="icon-phone" viewBox="0 0 24 24" fill="none" stroke="currentColor" stroke-width="2" stroke-linecap="round" stroke-linejoin="round"><path d="M13.832 16.568a1 1 0 0 0 1.213-.303l.355-.465A2 2 0 0 1 17 15h3a2 2 0 0 1 2 2v3a2 2 0 0 1-2 2A18 18 0 0 1 2 4a2 2 0 0 1 2-2h3a2 2 0 0 1 2 2v3a2 2 0 0 1-.8 1.6l-.468.351a1 1 0 0 0-.292 1.233 14 14 0 0 0 6.392 6.384" /></symbol>
    <symbol id="icon-star" viewBox="0 0 24 24" fill="none" stroke="currentColor" stroke-width="2" stroke-linecap="round" stroke-linejoin="round"><path d="M11.525 2.295a.53.53 0 0 1 .95 0l2.31 4.679a2.123 2.123 0 0 0 1.595 1.16l5.166.756a.53.53 0 0 1 .294.904l-3.736 3.638a2.123 2.123 0 0 0-.611 1.878l.882 5.14a.53.53 0 0 1-.771.56l-4.618-2.428a2.122 2.122 0 0 0-1.973 0L6.396 21.01a.53.53 0 0 1-.77-.56l.881-5.139a2.122 2.122 0 0 0-.611-1.879L2.16 9.795a.53.53 0 0 1 .294-.906l5.165-.755a2.122 2.122 0 0 0 1.597-1.16z" /></symbol>
    <symbol id="icon-x" viewBox="0 0 24 24" fill="none" stroke="currentColor" stroke-width="2" stroke-linecap="round" stroke-linejoin="round"><path d="M18 6 6 18" /><path d="m6 6 12 12" /></symbol>
    <symbol id="icon-syringe" viewBox="0 0 24 24" fill="none" stroke="currentColor" stroke-width="2" stroke-linecap="round" stroke-linejoin="round"><path d="m18 2 4 4" /><path d="m17 7 3-3" /><path d="M19 9 8.7 19.3c-1 1-2.5 1-3.4 0l-.6-.6c-1-1-1-2.5 0-3.4L15 5" /><path d="m9 11 4 4" /><path d="m5 19-3 3" /><path d="m14 4 6 6" /></symbol>
    <symbol id="icon-align-center" viewBox="0 0 24 24" fill="none" stroke="currentColor" stroke-width="2" stroke-linecap="round" stroke-linejoin="round"><path d="M21 5H3" /><path d="M17 12H7" /><path d="M19 19H5" /></symbol>
    <symbol id="icon-sparkles" viewBox="0 0 24 24" fill="none" stroke="currentColor" stroke-width="2" stroke-linecap="round" stroke-linejoin="round"><path d="M11.017 2.814a1 1 0 0 1 1.966 0l1.051 5.558a2 2 0 0 0 1.594 1.594l5.558 1.051a1 1 0 0 1 0 1.966l-5.558 1.051a2 2 0 0 0-1.594 1.594l-1.051 5.558a1 1 0 0 1-1.966 0l-1.051-5.558a2 2 0 0 0-1.594-1.594l-5.558-1.051a1 1 0 0 1 0-1.966l5.558-1.051a2 2 0 0 0 1.594-1.594z" /><path d="M20 2v4" /><path d="M22 4h-4" /><circle cx="4" cy="20" r="2" /></symbol>
    <symbol id="icon-layers" viewBox="0 0 24 24" fill="none" stroke="currentColor" stroke-width="2" stroke-linecap="round" stroke-linejoin="round"><path d="M12.83 2.18a2 2 0 0 0-1.66 0L2.6 6.08a1 1 0 0 0 0 1.83l8.58 3.91a2 2 0 0 0 1.66 0l8.58-3.9a1 1 0 0 0 0-1.83z" /><path d="M2 12a1 1 0 0 0 .58.91l8.6 3.91a2 2 0 0 0 1.65 0l8.58-3.9A1 1 0 0 0 22 12" /><path d="M2 17a1 1 0 0 0 .58.91l8.6 3.91a2 2 0 0 0 1.65 0l8.58-3.9A1 1 0 0 0 22 17" /></symbol>
    <symbol id="icon-shield" viewBox="0 0 24 24" fill="none" stroke="currentColor" stroke-width="2" stroke-linecap="round" stroke-linejoin="round"><path d="M20 13c0 5-3.5 7.5-7.66 8.95a1 1 0 0 1-.67-.01C7.5 20.5 4 18 4 13V6a1 1 0 0 1 1-1c2 0 4.5-1.2 6.24-2.72a1.17 1.17 0 0 1 1.52 0C14.51 3.81 17 5 19 5a1 1 0 0 1 1 1z" /></symbol>
    <symbol id="icon-smile" viewBox="0 0 24 24" fill="none" stroke="currentColor" stroke-width="2" stroke-linecap="round" stroke-linejoin="round"><path d="M15 10V9" /><path d="M16.472 15a6 6 0 01-8.943 0" /><path d="M9 10V9" /><circle cx="12" cy="12" r="10" /></symbol>
  </svg>
